<?xml version="1.0" encoding="utf-8"?>
<!-- Generator: Adobe Illustrator 16.0.0, SVG Export Plug-In . SVG Version: 6.00 Build 0)  -->
<!DOCTYPE svg PUBLIC "-//W3C//DTD SVG 1.1//EN" "http://www.w3.org/Graphics/SVG/1.1/DTD/svg11.dtd">
<svg version="1.1" id="Layer_1" xmlns="http://www.w3.org/2000/svg" xmlns:xlink="http://www.w3.org/1999/xlink" x="0px" y="0px"
	 width="100px" height="100px" viewBox="0 0 100 100" enable-background="new 0 0 100 100" xml:space="preserve">
<path fill="#F9DA66" d="M95,0H5C2.239,0,0,2.517,0,5.198v87.379C0,95.258,2.239,100,5,100h90c2.762,0,5-4.742,5-7.423V5.198
	C100,2.517,97.762,0,95,0z M35.867,69.074c-1.341,0.34-2.75,0.51-4.23,0.51c-3.84,0-6.599-0.98-8.699-2.939
	c-2.1-1.96-2.938-4.84-2.938-8.641V45h-5v-7h5v-8h9v8h8v7h-8v12.884c0,1.36,0.318,2.411,1.019,3.15
	c0.699,0.74,1.674,1.11,2.954,1.11c1.479,0,2.732-0.4,3.772-1.201l2.516,6.602C38.34,68.225,37.207,68.734,35.867,69.074z
	 M67.396,69h-9.6l-18.12-42h10.5l12.78,30l12.96-30h9.66L67.396,69z"/>
</svg>
